<svg width="198" height="186" viewBox="0 0 198 186" fill="none" xmlns="http://www.w3.org/2000/svg">
<path d="M81.4978 92.9842L93.1659 104.57L104.771 116.157L116.376 127.743L163.85 127.837V140.256C149.111 147.482 132.891 151.193 116.471 151.094C71.4543 151.094 34.9728 125.067 34.9728 92.9737C34.9728 60.88 71.4543 34.8533 116.471 34.8533C134.131 34.8533 150.483 38.8663 163.829 45.6705L172.322 37.16L180.762 28.7337L189.149 20.3074C169.22 7.66793 143.942 0 116.418 0C52.1269 0 0 41.6364 0 92.9842C0 144.332 52.1269 185.968 116.418 185.968C148.194 185.968 179.348 177.542 198 165.629V92.9842H81.4978Z" fill="#C53437"/>
<path d="M198 92.9842V165.661C179.348 177.584 148.194 186 116.418 186C52.1269 185.968 0 144.332 0 92.9842C0 41.6364 52.1269 0 116.418 0C143.942 0 169.22 7.6258 189.149 20.3811L180.762 28.8074C163.006 18.0744 140.672 11.6704 116.407 11.6704C58.5518 11.6283 11.6471 48.051 11.6471 92.9842C11.6471 137.917 58.5518 174.34 116.418 174.34C129.904 174.239 143.328 172.516 156.402 169.211C168.83 166.051 179.612 161.838 186.363 157.298V104.57H93.1659L81.4978 92.9842H198Z" fill="#9E071E"/>
<path d="M174.727 116.231V148.809C159.303 157.172 138.488 162.744 116.418 162.744C64.9871 162.744 23.2834 131.524 23.2834 93.0057C23.2834 54.487 64.9871 23.2676 116.418 23.2676C137.401 23.2676 156.75 28.4708 172.332 37.2131L163.839 45.7026C150.494 38.8984 134.142 34.8853 116.481 34.8853C71.4647 34.8853 34.9833 60.9121 34.9833 93.0057C34.9833 125.099 71.4647 151.126 116.481 151.126C132.902 151.225 149.121 147.515 163.861 140.288V127.849L116.386 127.754L104.781 116.168L174.727 116.231Z" fill="#E34A4E"/>
<path d="M81.5295 74.0781H84.8316V88.6451H81.5295V74.0781Z" fill="#4D4D4F"/>
<path d="M91.1192 76.8377H87.1102V74.0781H98.4302V76.8377H94.4213V88.6451H91.1192V76.8377Z" fill="#4D4D4F"/>
<path d="M104.275 86.8017L106.132 84.5582C107.117 85.4613 108.384 85.9971 109.719 86.0749C111.09 86.0749 111.765 85.5378 111.765 84.6741C111.765 83.8104 110.942 83.4628 109.655 82.9361L107.756 82.1356C106.91 81.8674 106.169 81.3391 105.641 80.6261C105.112 79.9131 104.822 79.0517 104.813 78.1647C104.813 75.7527 106.923 73.8252 110.014 73.8252C111.764 73.8296 113.444 74.5132 114.698 75.7317L113.042 77.8382C112.196 77.1184 111.125 76.716 110.014 76.7007C108.875 76.7007 108.147 77.1747 108.147 78.0067C108.147 78.8388 109.107 79.218 110.373 79.7236L112.23 80.482C113.084 80.7287 113.832 81.2513 114.357 81.9679C114.882 82.6846 115.154 83.5548 115.131 84.4423C115.131 86.8544 113.105 88.9504 109.634 88.9504C107.643 88.9237 105.732 88.1577 104.275 86.8017Z" fill="#4D4D4F"/>
<path d="M117.536 81.8935V74.0781H120.838V82.2306C120.838 85.085 121.735 86.0645 123.37 86.0645C125.005 86.0645 125.955 85.085 125.955 82.2306V74.0781H129.12V81.8935C129.12 86.7808 127.137 88.9084 123.36 88.9084C119.583 88.9084 117.536 86.7808 117.536 81.8935Z" fill="#4D4D4F"/>
<path d="M132.496 74.0781H137.507C140.725 74.0781 143.309 75.2262 143.309 78.7652C143.309 82.3043 140.693 83.7052 137.602 83.7052H135.798V88.6451H132.496V74.0781ZM137.401 81.093C139.216 81.093 140.081 80.282 140.081 78.7652C140.081 77.2485 139.1 76.6587 137.317 76.6587H135.798V81.0614L137.401 81.093Z" fill="#4D4D4F"/>
<path d="M145.831 74.0781H150.842C154.06 74.0781 156.645 75.2262 156.645 78.7652C156.645 82.3043 154.028 83.7052 150.937 83.7052H149.133V88.6451H145.831V74.0781ZM150.694 81.093C152.509 81.093 153.374 80.282 153.374 78.7652C153.374 77.2485 152.393 76.6587 150.61 76.6587H149.091V81.0614L150.694 81.093Z" fill="#4D4D4F"/>
<path d="M158.48 81.3033C158.48 76.5425 161.17 73.8145 165.106 73.8145C169.041 73.8145 171.731 76.5635 171.731 81.3033C171.731 86.0431 169.041 88.9081 165.106 88.9081C161.17 88.9081 158.48 86.0536 158.48 81.3033ZM168.344 81.3033C168.344 78.3752 167.099 76.6583 165.106 76.6583C163.112 76.6583 161.856 78.3752 161.856 81.3033C161.856 84.2315 163.112 86.0642 165.106 86.0642C167.099 86.0642 168.344 84.2209 168.344 81.3033Z" fill="#4D4D4F"/>
<path d="M174.474 74.0781H179.749C182.84 74.0781 185.372 75.1314 185.372 78.6178C185.372 82.1042 182.84 83.3997 179.749 83.3997H177.797V88.6662H174.495L174.474 74.0781ZM179.453 80.7876C181.194 80.7876 182.122 80.0503 182.122 78.6178C182.122 77.1853 181.194 76.6903 179.453 76.6903H177.776V80.7876H179.453ZM179.179 82.536L181.458 80.4294L186.11 88.6451H182.344L179.179 82.536Z" fill="#4D4D4F"/>
<path d="M190.636 76.8377H186.627V74.0781H197.958V76.8377H193.949V88.6451H190.647L190.636 76.8377Z" fill="#4D4D4F"/>
<path d="M116.513 136.853C116.49 136.525 116.534 136.195 116.641 135.884C116.748 135.573 116.917 135.286 117.138 135.042C117.358 134.797 117.626 134.599 117.924 134.46C118.223 134.32 118.547 134.242 118.876 134.231C119.18 134.228 119.481 134.29 119.758 134.414C120.035 134.538 120.283 134.72 120.483 134.948C120.683 135.176 120.832 135.444 120.919 135.735C121.006 136.026 121.029 136.332 120.986 136.632C120.988 136.851 120.967 137.07 120.923 137.285H117.99C118.029 137.593 118.186 137.875 118.428 138.071C118.669 138.267 118.977 138.363 119.287 138.338C119.662 138.325 120.026 138.212 120.342 138.012L120.838 138.907C120.309 139.258 119.691 139.452 119.055 139.465C118.711 139.481 118.367 139.424 118.046 139.297C117.726 139.171 117.436 138.977 117.195 138.731C116.955 138.484 116.77 138.189 116.652 137.865C116.535 137.541 116.487 137.197 116.513 136.853ZM119.741 136.306C119.741 135.758 119.498 135.358 118.908 135.358C118.658 135.374 118.422 135.478 118.243 135.652C118.063 135.825 117.951 136.057 117.927 136.306H119.741Z" fill="#4D4D4F"/>
<path d="M121.587 138.781L122.252 137.854C122.612 138.172 123.07 138.358 123.55 138.38C123.993 138.38 124.183 138.212 124.183 137.949C124.183 137.685 123.687 137.475 123.128 137.264C122.568 137.053 121.798 136.621 121.798 135.8C121.798 134.978 122.558 134.23 123.718 134.23C124.361 134.234 124.983 134.457 125.48 134.862L124.816 135.758C124.518 135.506 124.149 135.355 123.761 135.326C123.381 135.326 123.191 135.473 123.191 135.726C123.191 135.979 123.655 136.169 124.183 136.358C124.71 136.548 125.533 136.948 125.533 137.864C125.533 138.781 124.816 139.476 123.423 139.476C122.754 139.438 122.113 139.195 121.587 138.781Z" fill="#4D4D4F"/>
<path d="M126.504 137.538V135.516H125.818V134.463L126.588 134.399L126.757 133.072H127.991V134.399H129.194V135.569H127.991V137.57C127.991 138.139 128.244 138.37 128.635 138.37C128.8 138.362 128.964 138.33 129.12 138.276L129.352 139.329C128.991 139.447 128.614 139.507 128.234 139.508C126.999 139.476 126.504 138.697 126.504 137.538Z" fill="#4D4D4F"/>
<path d="M130.006 138.549C130.012 138.374 130.07 138.204 130.172 138.061C130.275 137.918 130.417 137.808 130.581 137.745C130.745 137.682 130.925 137.669 131.096 137.707C131.268 137.745 131.425 137.832 131.547 137.959C131.67 138.085 131.752 138.245 131.784 138.417C131.816 138.59 131.797 138.769 131.728 138.93C131.659 139.092 131.544 139.23 131.398 139.327C131.251 139.424 131.079 139.476 130.903 139.476C130.782 139.476 130.663 139.452 130.552 139.405C130.441 139.358 130.341 139.289 130.257 139.203C130.174 139.116 130.108 139.014 130.065 138.902C130.022 138.789 130.002 138.669 130.006 138.549Z" fill="#4D4D4F"/>
<path d="M134.806 138.507C136.442 136.97 137.592 135.874 137.592 134.958C137.607 134.832 137.595 134.705 137.556 134.584C137.517 134.464 137.452 134.354 137.365 134.261C137.278 134.169 137.173 134.097 137.055 134.05C136.937 134.002 136.811 133.982 136.684 133.989C136.46 134.014 136.243 134.085 136.047 134.198C135.851 134.31 135.68 134.461 135.545 134.642L134.732 133.841C134.982 133.518 135.301 133.256 135.667 133.074C136.032 132.891 136.434 132.794 136.842 132.788C137.119 132.769 137.397 132.808 137.657 132.903C137.918 132.997 138.156 133.146 138.355 133.339C138.554 133.532 138.71 133.764 138.813 134.022C138.916 134.279 138.964 134.555 138.952 134.831C138.952 135.885 137.897 137.054 136.842 138.139C137.17 138.139 137.613 138.065 137.897 138.065H139.185V139.329H134.669L134.806 138.507Z" fill="#4D4D4F"/>
<path d="M140.145 136.169C140.145 133.989 141.062 132.872 142.445 132.872C143.827 132.872 144.744 133.999 144.744 136.169C144.744 138.339 143.827 139.518 142.445 139.518C141.062 139.518 140.145 138.275 140.145 136.169ZM143.31 136.169C143.31 134.42 142.919 134.062 142.423 134.062C141.928 134.062 141.537 134.463 141.537 136.169C141.537 137.875 141.928 138.37 142.423 138.37C142.919 138.37 143.31 137.875 143.31 136.169Z" fill="#4D4D4F"/>
<path d="M145.472 136.169C145.472 133.989 146.39 132.872 147.761 132.872C149.133 132.872 150.061 133.999 150.061 136.169C150.061 138.339 149.143 139.518 147.761 139.518C146.379 139.518 145.472 138.275 145.472 136.169ZM148.637 136.169C148.637 134.42 148.247 134.062 147.74 134.062C147.234 134.062 146.854 134.463 146.854 136.169C146.854 137.875 147.244 138.37 147.74 138.37C148.236 138.37 148.658 137.875 148.658 136.169H148.637Z" fill="#4D4D4F"/>
<path d="M150.842 136.306C150.842 133.905 152.087 132.83 153.437 132.83C153.786 132.826 154.132 132.893 154.454 133.025C154.777 133.157 155.07 133.352 155.315 133.599L154.524 134.484C154.397 134.345 154.245 134.233 154.074 134.153C153.904 134.074 153.72 134.029 153.532 134.02C152.783 134.02 152.192 134.589 152.192 136.306C152.192 138.023 152.699 138.413 153.247 138.413C153.796 138.413 154.06 138.107 154.06 137.359C154.06 136.612 153.701 136.432 153.216 136.432C153.002 136.444 152.795 136.514 152.619 136.635C152.442 136.756 152.302 136.922 152.213 137.117L152.15 136.148C152.303 135.927 152.504 135.743 152.738 135.61C152.971 135.477 153.232 135.398 153.5 135.379C153.763 135.359 154.027 135.397 154.273 135.49C154.519 135.583 154.741 135.73 154.923 135.919C155.106 136.109 155.244 136.336 155.328 136.585C155.413 136.834 155.44 137.098 155.41 137.359C155.41 137.918 155.188 138.454 154.792 138.849C154.396 139.244 153.86 139.466 153.3 139.466C152.024 139.476 150.842 138.55 150.842 136.306Z" fill="#4D4D4F"/>
<path d="M18.3145 26.1004C17.137 26.1045 15.9704 25.8737 14.8834 25.4215C13.7964 24.9693 12.8109 24.3049 11.9846 23.4672C11.1527 22.6106 10.4937 21.6022 10.0434 20.4969C9.07325 18.0327 9.07325 15.2932 10.0434 12.829C10.4934 11.7205 11.1524 10.7086 11.9846 9.8482C12.8109 9.01052 13.7964 8.34608 14.8834 7.8939C15.9704 7.44171 17.137 7.21089 18.3145 7.21498C19.5273 7.20826 20.7291 7.44465 21.8487 7.91015C22.9239 8.3609 23.8992 9.01956 24.7183 9.8482C25.5537 10.7082 26.2162 11.72 26.67 12.829C27.1653 14.0457 27.4093 15.3498 27.3874 16.663C27.4084 17.9761 27.1644 19.28 26.67 20.4969C26.2162 21.6028 25.5536 22.6112 24.7183 23.4672C23.9019 24.2991 22.926 24.9583 21.8487 25.4053C20.7307 25.8758 19.5278 26.1124 18.3145 26.1004ZM18.3145 24.3309C19.2768 24.3326 20.23 24.1466 21.1208 23.7832C21.9833 23.4323 22.7604 22.9007 23.3996 22.2243C24.0594 21.5235 24.5755 20.7005 24.9188 19.8018C25.6506 17.7875 25.6506 15.5806 24.9188 13.5663C24.5726 12.6627 24.057 11.8333 23.3996 11.1227C22.7601 10.4335 21.9841 9.88473 21.1208 9.51115C20.2274 9.13601 19.2679 8.94277 18.2987 8.94277C17.3295 8.94277 16.37 9.13601 15.4766 9.51115C14.6322 9.89098 13.8746 10.4394 13.2506 11.1227C12.6105 11.8424 12.1033 12.6698 11.7525 13.5663C11.0206 15.5806 11.0206 17.7875 11.7525 19.8018C12.1008 20.6932 12.6084 21.5141 13.2506 22.2243C13.8742 22.8948 14.6328 23.4261 15.4766 23.7832C16.3772 24.1506 17.3417 24.3368 18.3145 24.3309ZM14.8542 21.3606V11.6704H18.5044C19.437 11.6437 20.3572 11.8889 21.1524 12.3761C21.5256 12.6497 21.8197 13.0168 22.0049 13.4404C22.1902 13.864 22.2601 14.3289 22.2074 14.7881C22.2096 15.36 22.0446 15.92 21.7327 16.3997C21.4284 16.8841 20.9722 17.2544 20.4351 17.4529L22.6822 21.3606H20.4773L18.8209 18.0533H16.827V21.3606H14.8542ZM16.827 16.4734H18.0719C19.4434 16.4734 20.1819 15.9257 20.1819 14.8408C20.1901 14.6303 20.156 14.4203 20.0817 14.2231C20.0075 14.026 19.8944 13.8456 19.7493 13.6927C19.3091 13.3594 18.7587 13.2051 18.209 13.2609H16.827V16.4734Z" fill="#4D4D4F"/>
</svg>
