<svg width="12" height="12" viewBox="0 0 12 12" fill="none" xmlns="http://www.w3.org/2000/svg">
<path fill-rule="evenodd" clip-rule="evenodd" d="M4.5 10.0364L6 12L7.5 10.0364H10.3158C11.246 10.0364 12 9.2549 12 8.29091V1.74545C12 0.781467 11.246 0 10.3158 0H1.68421C0.754047 0 0 0.781467 0 1.74545V8.29091C0 9.2549 0.754047 10.0364 1.68421 10.0364H4.5ZM6 10.9455L7.19446 9.38182H10.3158C10.8971 9.38182 11.3684 8.8934 11.3684 8.29091V1.74545C11.3684 1.14296 10.8971 0.654545 10.3158 0.654545H1.68421C1.10286 0.654545 0.631579 1.14296 0.631579 1.74545V8.29091C0.631579 8.8934 1.10286 9.38182 1.68421 9.38182H4.80554L6 10.9455Z" fill="#E34A4E"/>
<rect x="2.31592" y="2.61816" width="7.1579" height="1.09091" rx="0.545455" fill="#E34A4E"/>
<rect x="2.31592" y="4.36328" width="7.1579" height="1.09091" rx="0.545455" fill="#E34A4E"/>
<rect x="2.31592" y="6.10938" width="4.42105" height="1.09091" rx="0.545455" fill="#E34A4E"/>
</svg>
