<svg width="31" height="30" viewBox="0 0 31 30" fill="none" xmlns="http://www.w3.org/2000/svg">
<path d="M25.7864 0H4.57684C3.41314 0.00167239 2.29746 0.464048 1.4738 1.286C0.650149 2.10795 0.185558 3.22258 0.181641 4.38611V25.6012C0.1822 26.7669 0.64531 27.8848 1.46933 28.7095C2.29334 29.5342 3.41094 29.9983 4.57684 30H13.4244V19.3925H9.90782V14.1236H13.4244V10.5461C13.4255 9.14799 13.9815 7.80741 14.9703 6.81876C15.9591 5.83011 17.2999 5.2742 18.6982 5.27307H24.0292V10.5461H18.6982V14.1236H24.0292L23.1506 19.3967H18.7046V30H25.7928C26.9578 29.9972 28.0741 29.5325 28.8968 28.7079C29.7196 27.8832 30.1816 26.766 30.1816 25.6012V4.38611C30.1783 3.22241 29.7139 2.10746 28.8901 1.28538C28.0663 0.463312 26.9503 0.00111518 25.7864 0Z" fill="white"/>
</svg>
