<svg width="30" height="30" viewBox="0 0 30 30" fill="none" xmlns="http://www.w3.org/2000/svg">
<path d="M20.6253 0H9.37473C6.88857 0.000561195 4.5044 0.988295 2.74642 2.74603C0.988434 4.50376 0.000561513 6.8876 2.39085e-07 9.37341V20.6224C-0.00027782 21.8536 0.241987 23.0728 0.712961 24.2104C1.18393 25.348 1.8744 26.3817 2.74492 27.2525C3.61544 28.1233 4.64898 28.8141 5.78653 29.2855C6.92408 29.7569 8.14335 29.9997 9.37473 30H20.6253C21.8567 29.9997 23.0759 29.7569 24.2135 29.2855C25.351 28.8141 26.3846 28.1233 27.2551 27.2525C28.1256 26.3817 28.8161 25.348 29.287 24.2104C29.758 23.0728 30.0003 21.8536 30 20.6224V9.37341C29.9994 6.8876 29.0116 4.50376 27.2536 2.74603C25.4956 0.988295 23.1114 0.000561195 20.6253 0ZM27.1884 20.6224C27.1884 22.3628 26.497 24.0319 25.2661 25.2626C24.0353 26.4932 22.3659 27.1846 20.6253 27.1846H9.37473C7.63408 27.1846 5.96471 26.4932 4.73388 25.2626C3.50305 24.0319 2.81157 22.3628 2.81157 20.6224V9.37341C2.81157 7.633 3.50305 5.96387 4.73388 4.73321C5.96471 3.50255 7.63408 2.81118 9.37473 2.81118H20.6253C22.3659 2.81118 24.0353 3.50255 25.2661 4.73321C26.497 5.96387 27.1884 7.633 27.1884 9.37341V20.6224Z" fill="white"/>
<path d="M15.0002 7.5C13.5165 7.49958 12.066 7.93915 10.8321 8.7631C9.59822 9.58705 8.63646 10.7584 8.06846 12.1289C7.50046 13.4994 7.35174 15.0076 7.6411 16.4627C7.93046 17.9177 8.64491 19.2543 9.69408 20.3033C10.7433 21.3523 12.08 22.0667 13.5353 22.356C14.9905 22.6453 16.4989 22.4966 17.8696 21.9287C19.2404 21.3608 20.4118 20.3991 21.2359 19.1655C22.06 17.9318 22.4996 16.4814 22.4992 14.9979C22.4986 13.0095 21.7084 11.1027 20.3022 9.6967C18.896 8.29069 16.9889 7.50056 15.0002 7.5ZM15.0002 19.6846C14.0733 19.6842 13.1672 19.4089 12.3967 18.8937C11.6261 18.3785 11.0256 17.6464 10.6712 16.7899C10.3167 15.9335 10.2242 14.9912 10.4053 14.0823C10.5864 13.1733 11.033 12.3384 11.6886 11.6831C12.3443 11.0279 13.1795 10.5817 14.0887 10.4011C14.9979 10.2204 15.9403 10.3133 16.7966 10.6681C17.653 11.0229 18.385 11.6236 18.8999 12.3943C19.4149 13.165 19.6897 14.071 19.6897 14.9979C19.6881 16.2407 19.1934 17.4322 18.3142 18.3108C17.4351 19.1894 16.2433 19.6835 15.0002 19.6846Z" fill="white"/>
<path d="M23.0623 7.93609C23.6142 7.93609 24.0616 7.48869 24.0616 6.93679C24.0616 6.3849 23.6142 5.9375 23.0623 5.9375C22.5104 5.9375 22.063 6.3849 22.063 6.93679C22.063 7.48869 22.5104 7.93609 23.0623 7.93609Z" fill="white"/>
</svg>
