<svg width="16" height="16" viewBox="0 0 16 16" fill="none" xmlns="http://www.w3.org/2000/svg">
<path d="M14.2286 1.29792L9.5557 6.08758C9.32263 6.32879 9.1828 6.65039 9.1828 6.99498V14.2312L6.8172 11.8306V6.98349C6.8172 6.65039 6.68902 6.3173 6.4443 6.0761L1.77138 1.29792H14.2286ZM15.0094 0H0.990623C0.116636 0 -0.326183 1.03374 0.279781 1.65398L5.48874 6.98349V11.9569C5.48874 12.2096 5.59362 12.4623 5.76842 12.6346L8.80989 15.7014C9.008 15.9081 9.26437 16 9.50908 16C10.0218 16 10.5113 15.6095 10.5113 15.0237V6.98349L15.7202 1.65398C16.3262 1.03374 15.8834 0 15.0094 0Z" fill="#333333"/>
</svg>
