<svg width="31" height="30" viewBox="0 0 31 30" fill="none" xmlns="http://www.w3.org/2000/svg">
<path d="M3.75549 6.27193e-07C3.28609 -0.000277537 2.82123 0.0919729 2.38751 0.271477C1.95378 0.450981 1.55969 0.714218 1.22778 1.04614C0.895859 1.37805 0.632622 1.77214 0.453118 2.20587C0.273614 2.63959 0.181363 3.10444 0.181641 3.57385V26.4262C0.181363 26.8956 0.273614 27.3604 0.453118 27.7941C0.632622 28.2279 0.895859 28.6219 1.22778 28.9539C1.55969 29.2858 1.95378 29.549 2.38751 29.7285C2.82123 29.908 3.28609 30.0003 3.75549 30H26.6078C27.0772 30.0003 27.542 29.908 27.9758 29.7285C28.4095 29.549 28.8036 29.2858 29.1355 28.9539C29.4674 28.6219 29.7307 28.2279 29.9102 27.7941C30.0897 27.3604 30.1819 26.8956 30.1816 26.4262V3.57385C30.1819 3.10444 30.0897 2.63959 29.9102 2.20587C29.7307 1.77214 29.4674 1.37805 29.1355 1.04614C28.8036 0.714218 28.4095 0.450981 27.9758 0.271477C27.542 0.0919729 27.0772 -0.000277537 26.6078 6.27193e-07H3.75549ZM8.04241 2.85654H9.75633L10.899 5.71308L12.0416 2.85654H13.7576L11.6099 7.85654V10.7131H10.1816V7.85019C9.7521 6.69911 8.33018 3.57385 8.03818 2.85654H8.04241ZM15.1816 5C15.4919 4.98369 15.8019 5.0359 16.0897 5.15292C16.3776 5.26994 16.6361 5.44891 16.8469 5.67711C17.1537 6.02836 17.3251 6.5912 17.3251 7.3339V8.37918C17.3251 9.12188 17.1833 9.63606 16.8829 9.98519C16.6683 10.2194 16.4064 10.4053 16.1146 10.5308C15.8228 10.6563 15.5077 10.7184 15.1901 10.7131C14.8722 10.7203 14.5565 10.6591 14.2645 10.5335C13.9724 10.4079 13.7107 10.2209 13.4973 9.98519C13.1905 9.63606 13.0403 9.12188 13.0403 8.37918V7.34236C13.0403 6.59966 13.2053 6.02836 13.5185 5.67711C13.9121 5.19255 14.4601 5 15.1816 5ZM18.0382 5H19.4686V9.28692C19.497 9.37674 19.5559 9.4538 19.6351 9.5048C19.7143 9.55579 19.8088 9.57752 19.9023 9.56623C20.1965 9.56623 20.5667 9.22345 20.8968 8.84469V5H22.3251V10.7131H20.8947V9.72704C20.3149 10.292 19.8219 10.7152 19.1723 10.694C18.7005 10.6792 18.3725 10.5078 18.2075 10.165C18.0775 9.85028 18.019 9.51064 18.0361 9.17055L18.0382 5ZM15.1816 6.15531C15.0861 6.15535 14.9917 6.17554 14.9045 6.21456C14.8187 6.25122 14.7411 6.30442 14.6759 6.37114C14.5411 6.50842 14.4652 6.6929 14.4643 6.88532V8.89124C14.4649 9.08434 14.5408 9.2696 14.6759 9.40753C14.7412 9.47357 14.8188 9.52607 14.9045 9.562C14.9916 9.60111 15.0861 9.62134 15.1816 9.62134C15.2772 9.62134 15.3717 9.60111 15.4588 9.562C15.5891 9.50484 15.6999 9.41096 15.7777 9.29184C15.8555 9.17272 15.8969 9.03351 15.8968 8.89124V6.88532C15.898 6.69392 15.8235 6.50982 15.6895 6.37309C15.5556 6.23637 15.373 6.1581 15.1816 6.15531ZM15.1816 12.8565C15.1816 12.8565 19.9743 12.8565 23.1757 13.0851C23.6243 13.1358 24.5976 13.1422 25.4694 14.0351C26.155 14.708 26.375 16.2505 26.375 16.2505C26.5436 17.2081 26.6215 18.1793 26.6078 19.1515V20.8443C26.6222 21.8164 26.545 22.7876 26.3772 23.7452C26.3772 23.7452 26.1656 25.2878 25.4715 25.9606C24.5998 26.8536 23.6264 26.8599 23.1778 26.9107C19.9764 27.1392 15.1774 27.1456 15.1774 27.1456C15.1774 27.1456 9.23369 27.0884 7.40551 26.9171C6.89768 26.824 5.75507 26.8536 4.88329 25.967C4.19772 25.2878 3.97766 23.7452 3.97766 23.7452C3.81254 22.7867 3.73815 21.8147 3.75549 20.8421V19.1494C3.74108 18.1773 3.8183 17.206 3.98613 16.2484C3.98613 16.2484 4.19772 14.7059 4.89176 14.033C5.76353 13.1401 6.73687 13.1337 7.18545 13.0829C10.3827 12.8565 15.1816 12.8565 15.1816 12.8565ZM5.89472 15.7152V17.1286H7.32299V24.2869H8.75337V17.1286H10.1816V15.7152H5.89472ZM15.1816 15.7152V24.2869H16.6099V23.394C17.0606 23.9505 17.6488 24.2869 18.1292 24.2869C18.3923 24.296 18.6511 24.218 18.8654 24.065C19.0796 23.9119 19.2374 23.6924 19.3141 23.4405C19.4272 23.0474 19.4793 22.6392 19.4686 22.2302V20.2687C19.4774 19.7498 19.4147 19.2322 19.2824 18.7304C19.214 18.4777 19.0637 18.2547 18.855 18.0966C18.6463 17.9384 18.391 17.854 18.1292 17.8565C17.4288 17.8565 17.1452 18.2141 16.6099 18.8405V15.7152H15.1816ZM10.1816 17.8565V22.6322C10.1668 23.0027 10.2228 23.3725 10.3467 23.722C10.4233 23.9021 10.5546 24.0536 10.7221 24.155C10.8896 24.2564 11.0847 24.3025 11.2798 24.2869C11.8025 24.2869 12.4753 23.9187 13.0382 23.3115V24.2869H14.4664V17.8565H13.0382V22.336C12.725 22.7592 12.2659 23.0639 11.9802 23.0639C11.8937 23.0742 11.8066 23.0503 11.7375 22.9974C11.6683 22.9444 11.6225 22.8666 11.6099 22.7804V17.8565H10.1816ZM22.3463 17.8565C22.0339 17.8409 21.7217 17.8913 21.43 18.0043C21.1384 18.1173 20.8738 18.2905 20.6535 18.5125C20.3551 18.8278 20.1795 19.3441 20.1795 20.0127V22.1942C20.1795 22.8608 20.3721 23.3263 20.6704 23.6373C21.0788 24.0605 21.6395 24.2721 22.378 24.2721C23.1165 24.2721 23.6941 24.0478 24.0835 23.5929C24.2512 23.4002 24.365 23.1666 24.4135 22.9158C24.4467 22.6547 24.4644 22.3918 24.4664 22.1287H23.0382V22.7C23.0091 22.8685 22.9214 23.0214 22.7905 23.1316C22.6596 23.2418 22.4941 23.3023 22.323 23.3023C22.1519 23.3023 21.9863 23.2418 21.8555 23.1316C21.7246 23.0214 21.6369 22.8685 21.6078 22.7V21.4135H24.4664V19.9704C24.4664 19.3017 24.3014 18.813 24.0073 18.4892C23.791 18.2722 23.531 18.1036 23.2447 17.9945C22.9584 17.8855 22.6521 17.8384 22.3463 17.8565ZM22.3251 18.8912C22.499 18.8777 22.6712 18.9328 22.8049 19.0447C22.9386 19.1566 23.0231 19.3165 23.0403 19.4901V20.4401H21.6099V19.4901C21.6271 19.3165 21.7116 19.1566 21.8453 19.0447C21.979 18.9328 22.1513 18.8777 22.3251 18.8912ZM17.4817 19.1028C17.871 19.1028 18.0382 19.3419 18.0382 20.0868V22.0525C18.0382 22.7973 17.871 23.0554 17.4817 23.0554C17.1576 23.0275 16.8515 22.8945 16.6099 22.6767V19.5535C16.8489 19.3199 17.1527 19.1636 17.4817 19.1049V19.1028Z" fill="white"/>
</svg>
