<svg width="30" height="27" viewBox="0 0 30 27" fill="none" xmlns="http://www.w3.org/2000/svg">
<path d="M28.3506 1.64755C27.2513 0.552432 25.9259 -0.0170518 24.5138 0.00141167C23.1925 0.0181442 21.8965 0.570896 20.8634 1.55812L20.8535 1.56735L7.44841 14.988C6.1072 16.3226 6.10661 18.2601 7.44782 19.5952C8.09821 20.2426 8.92731 20.5992 9.78337 20.5992H9.78395C10.6506 20.5992 11.4849 20.2426 12.1388 19.5918L21.4037 10.2712L19.7291 8.65676L10.4683 17.9728C10.2621 18.1782 10.0195 18.2913 9.78395 18.2913C9.55251 18.2913 9.32692 18.1839 9.11481 17.9728C8.49782 17.3583 8.90973 16.8165 9.11774 16.6093L22.5052 3.20599C23.7849 1.99086 25.4238 2.01567 26.6847 3.27061C28.1806 4.75981 27.7629 6.50865 26.6859 7.58068L11.4474 23.0785C10.4004 24.12 9.07555 24.6929 7.71618 24.6935H7.71559C6.3568 24.6935 5.06833 24.1251 3.98845 23.0502C1.46071 20.534 2.16677 17.5781 3.98786 15.7646L15.5367 4.39515L13.8797 2.76286L2.3279 14.1341L2.32321 14.1387C0.874774 15.58 0.0509456 17.3975 0.00289872 19.2565C-0.0480778 21.2391 0.753485 23.1114 2.32145 24.6727C3.82966 26.174 5.74509 27.0008 7.71501 27.0008C7.71501 27.0008 7.71559 27.0008 7.71618 27.0008C9.70778 27.0008 11.6261 26.1821 13.1179 24.6964L28.3564 9.19855C30.5508 7.01005 30.5484 3.83548 28.3506 1.64755Z" fill="#4D525B"/>
</svg>
