<svg width="14" height="14" viewBox="0 0 14 14" fill="none" xmlns="http://www.w3.org/2000/svg">
<g clip-path="url(#clip0)">
<path d="M10.13 4.16504L5.97996 8.77504L3.35496 6.14504L2.64496 6.85504L6.01996 10.225L10.87 4.83504L10.13 4.16504ZM10.13 4.16504L5.97996 8.77504L3.35496 6.14504L2.64496 6.85504L6.01996 10.225L10.87 4.83504L10.13 4.16504ZM10.13 4.16504L5.97996 8.77504L3.35496 6.14504L2.64496 6.85504L6.01996 10.225L10.87 4.83504L10.13 4.16504Z" fill="#A43638"/>
<path d="M7 0C3.135 0 0 3.135 0 7C0 10.865 3.135 14 7 14C10.865 14 14 10.865 14 7C14 3.135 10.865 0 7 0ZM6.02 10.225L2.645 6.855L3.355 6.145L5.98 8.775L10.13 4.165L10.87 4.835L6.02 10.225Z" fill="#E14D50"/>
<path d="M10.87 4.83504L6.01996 10.225L2.64496 6.85504L3.35496 6.14504L5.97996 8.77504L10.13 4.16504L10.87 4.83504Z" fill="white"/>
</g>
<defs>
<clipPath id="clip0">
<rect width="14" height="14" fill="white"/>
</clipPath>
</defs>
</svg>
