<svg width="28" height="20" viewBox="0 0 28 20" fill="none" xmlns="http://www.w3.org/2000/svg">
<path d="M14 2C19.16 2 23.83 7.62 25.58 10.01C23.44 12.95 18.78 18 14 18C8.84 18 4.17 12.38 2.42 9.99C4.56 7.05 9.22 2 14 2ZM14 0C6.27 0 0 10 0 10C0 10 6.27 20 14 20C21.73 20 28 10 28 10C28 10 21.73 0 14 0ZM14 7C15.65 7 17 8.35 17 10C17 11.65 15.65 13 14 13C12.35 13 11 11.65 11 10C11 8.35 12.35 7 14 7ZM14 5C11.24 5 9 7.24 9 10C9 12.76 11.24 15 14 15C16.76 15 19 12.76 19 10C19 7.24 16.76 5 14 5Z" fill="#C4C4C4"/>
</svg>
