<svg width="30" height="30" viewBox="0 0 30 30" fill="none" xmlns="http://www.w3.org/2000/svg">
<path d="M20.6253 0H9.37473C6.88857 0.000561195 4.5044 0.988295 2.74642 2.74603C0.988434 4.50376 0.000561513 6.8876 2.39085e-07 9.37341V20.6224C-0.00027782 21.8536 0.241987 23.0728 0.712961 24.2104C1.18393 25.348 1.8744 26.3817 2.74492 27.2525C3.61544 28.1233 4.64898 28.8141 5.78653 29.2855C6.92408 29.7569 8.14335 29.9997 9.37473 30H20.6253C21.8567 29.9997 23.0759 29.7569 24.2135 29.2855C25.351 28.8141 26.3846 28.1233 27.2551 27.2525C28.1256 26.3817 28.8161 25.348 29.287 24.2104C29.758 23.0728 30.0003 21.8536 30 20.6224V9.37341C29.9994 6.8876 29.0116 4.50376 27.2536 2.74603C25.4956 0.988295 23.1114 0.000561195 20.6253 0ZM27.1884 20.6224C27.1884 22.3628 26.497 24.0319 25.2661 25.2626C24.0353 26.4932 22.3659 27.1846 20.6253 27.1846H9.37473C7.63408 27.1846 5.96471 26.4932 4.73388 25.2626C3.50305 24.0319 2.81157 22.3628 2.81157 20.6224V9.37341C2.81157 7.633 3.50305 5.96387 4.73388 4.73321C5.96471 3.50255 7.63408 2.81118 9.37473 2.81118H20.6253C22.3659 2.81118 24.0353 3.50255 25.2661 4.73321C26.497 5.96387 27.1884 7.633 27.1884 9.37341V20.6224Z" fill="#E34A4E"/>
<path d="M15.0001 7.5C13.5163 7.49958 12.0658 7.93915 10.8319 8.7631C9.59804 9.58705 8.63628 10.7584 8.06828 12.1289C7.50028 13.4994 7.35156 15.0076 7.64092 16.4627C7.93028 17.9177 8.64473 19.2543 9.6939 20.3033C10.7431 21.3523 12.0798 22.0667 13.5351 22.356C14.9903 22.6453 16.4987 22.4966 17.8695 21.9287C19.2402 21.3608 20.4117 20.3991 21.2357 19.1655C22.0598 17.9318 22.4994 16.4814 22.499 14.9979C22.4984 13.0095 21.7082 11.1027 20.302 9.6967C18.8958 8.29069 16.9887 7.50056 15.0001 7.5ZM15.0001 19.6846C14.0731 19.6842 13.167 19.4089 12.3965 18.8937C11.6259 18.3785 11.0255 17.6464 10.671 16.7899C10.3166 15.9335 10.224 14.9912 10.4051 14.0823C10.5862 13.1733 11.0328 12.3384 11.6885 11.6831C12.3441 11.0279 13.1793 10.5817 14.0885 10.4011C14.9977 10.2204 15.9401 10.3133 16.7964 10.6681C17.6528 11.0229 18.3848 11.6236 18.8997 12.3943C19.4147 13.165 19.6896 14.071 19.6896 14.9979C19.6879 16.2407 19.1932 17.4322 18.314 18.3108C17.4349 19.1894 16.2431 19.6835 15.0001 19.6846Z" fill="#E34A4E"/>
<path d="M23.0622 7.93609C23.6141 7.93609 24.0615 7.48869 24.0615 6.93679C24.0615 6.3849 23.6141 5.9375 23.0622 5.9375C22.5103 5.9375 22.0629 6.3849 22.0629 6.93679C22.0629 7.48869 22.5103 7.93609 23.0622 7.93609Z" fill="#E34A4E"/>
</svg>
