<svg width="30" height="30" viewBox="0 0 30 30" fill="none" xmlns="http://www.w3.org/2000/svg">
<path d="M25.717 0H4.28299C3.14793 0.00279504 2.06016 0.454935 1.25755 1.25755C0.454935 2.06016 0.00279504 3.14793 0 4.28299V25.717C0.00279504 26.8521 0.454935 27.9398 1.25755 28.7425C2.06016 29.5451 3.14793 29.9972 4.28299 30H25.717C26.8521 29.9972 27.9398 29.5451 28.7425 28.7425C29.5451 27.9398 29.9972 26.8521 30 25.717V4.28299C29.9972 3.14793 29.5451 2.06016 28.7425 1.25755C27.9398 0.454935 26.8521 0.00279504 25.717 0ZM8.75018 24.9993H3.74947V11.2505H8.75018V24.9993ZM6.24982 9.62456C4.75088 9.62456 3.74947 8.62315 3.74947 7.37403C3.74947 6.00212 4.75088 5.0007 6.24982 5.0007C7.74876 5.0007 8.75018 6.00212 8.75018 7.25123C8.75018 8.62315 7.74876 9.62456 6.24982 9.62456ZM26.2505 24.9993H21.2498V17.5004C21.2498 15.4975 19.8737 15 19.5011 15C19.1284 15 17.5004 15.2498 17.5004 17.5004V24.9993H12.4996V11.2505H17.5004V13.2512C18.2519 12.1249 19.5011 11.2505 21.8744 11.2505C24.2477 11.2505 26.2505 13.1242 26.2505 17.5004V24.9993Z" fill="#BDBDBD"/>
</svg>
