<svg width="7" height="12" viewBox="0 0 7 12" fill="none" xmlns="http://www.w3.org/2000/svg">
<path d="M2.464 7.304C2.41067 6.94133 2.42133 6.61067 2.496 6.312C2.58133 6.01333 2.69867 5.736 2.848 5.48C2.99733 5.224 3.16267 4.98933 3.344 4.776C3.536 4.56267 3.71733 4.36 3.888 4.168C4.05867 3.96533 4.19733 3.77333 4.304 3.592C4.42133 3.4 4.48 3.20267 4.48 3C4.48 2.66933 4.37867 2.41867 4.176 2.248C3.984 2.07733 3.728 1.992 3.408 1.992C3.10933 1.992 2.84267 2.06133 2.608 2.2C2.384 2.33867 2.16533 2.51467 1.952 2.728L0.656 1.544C1.02933 1.10667 1.472 0.754666 1.984 0.488C2.50667 0.221333 3.08267 0.0879993 3.712 0.0879993C4.13867 0.0879993 4.53333 0.141333 4.896 0.247999C5.26933 0.354666 5.58933 0.519999 5.856 0.743999C6.13333 0.968 6.34667 1.256 6.496 1.608C6.656 1.94933 6.736 2.35467 6.736 2.824C6.736 3.15467 6.67733 3.45333 6.56 3.72C6.44267 3.976 6.29333 4.216 6.112 4.44C5.94133 4.664 5.75467 4.88267 5.552 5.096C5.36 5.29867 5.17867 5.512 5.008 5.736C4.848 5.96 4.72 6.2 4.624 6.456C4.528 6.70133 4.496 6.984 4.528 7.304H2.464ZM3.488 11.192C3.08267 11.192 2.74667 11.0533 2.48 10.776C2.21333 10.488 2.08 10.136 2.08 9.72C2.08 9.29333 2.21333 8.94133 2.48 8.664C2.74667 8.376 3.08267 8.232 3.488 8.232C3.89333 8.232 4.22933 8.376 4.496 8.664C4.77333 8.94133 4.912 9.29333 4.912 9.72C4.912 10.136 4.77333 10.488 4.496 10.776C4.22933 11.0533 3.89333 11.192 3.488 11.192Z" fill="#4D525B"/>
</svg>
