<svg width="31" height="30" viewBox="0 0 31 30" fill="none" xmlns="http://www.w3.org/2000/svg">
<path d="M3.75567 6.27193e-07C3.28627 -0.000277537 2.82141 0.0919729 2.38769 0.271477C1.95396 0.450981 1.55988 0.714218 1.22796 1.04614C0.896042 1.37805 0.632805 1.77214 0.453301 2.20587C0.273797 2.63959 0.181546 3.10444 0.181824 3.57385V26.4262C0.181546 26.8956 0.273797 27.3604 0.453301 27.7941C0.632805 28.2279 0.896042 28.6219 1.22796 28.9539C1.55988 29.2858 1.95396 29.549 2.38769 29.7285C2.82141 29.908 3.28627 30.0003 3.75567 30H26.608C27.0774 30.0003 27.5422 29.908 27.976 29.7285C28.4097 29.549 28.8038 29.2858 29.1357 28.9539C29.4676 28.6219 29.7308 28.2279 29.9103 27.7941C30.0899 27.3604 30.1821 26.8956 30.1818 26.4262V3.57385C30.1821 3.10444 30.0899 2.63959 29.9103 2.20587C29.7308 1.77214 29.4676 1.37805 29.1357 1.04614C28.8038 0.714218 28.4097 0.450981 27.976 0.271477C27.5422 0.0919729 27.0774 -0.000277537 26.608 6.27193e-07H3.75567ZM8.04259 2.85654H9.75652L10.8991 5.71308L12.0417 2.85654H13.7578L11.6101 7.85654V10.7131H10.1818V7.85019C9.75229 6.69911 8.33036 3.57385 8.03836 2.85654H8.04259ZM15.1818 5C15.4921 4.98369 15.8021 5.0359 16.0899 5.15292C16.3777 5.26994 16.6362 5.44891 16.8471 5.67711C17.1539 6.02836 17.3253 6.5912 17.3253 7.3339V8.37918C17.3253 9.12188 17.1835 9.63606 16.883 9.98519C16.6684 10.2194 16.4066 10.4053 16.1148 10.5308C15.823 10.6563 15.5079 10.7184 15.1903 10.7131C14.8724 10.7203 14.5567 10.6591 14.2646 10.5335C13.9726 10.4079 13.7109 10.2209 13.4975 9.98519C13.1907 9.63606 13.0405 9.12188 13.0405 8.37918V7.34236C13.0405 6.59966 13.2055 6.02836 13.5187 5.67711C13.9123 5.19255 14.4603 5 15.1818 5ZM18.0384 5H19.4687V9.28692C19.4972 9.37674 19.5561 9.4538 19.6353 9.5048C19.7145 9.55579 19.809 9.57752 19.9025 9.56623C20.1966 9.56623 20.5669 9.22345 20.897 8.84469V5H22.3253V10.7131H20.8949V9.72704C20.3151 10.292 19.8221 10.7152 19.1725 10.694C18.7007 10.6792 18.3727 10.5078 18.2076 10.165C18.0777 9.85028 18.0192 9.51064 18.0362 9.17055L18.0384 5ZM15.1818 6.15531C15.0863 6.15535 14.9918 6.17554 14.9046 6.21456C14.8189 6.25122 14.7412 6.30442 14.6761 6.37114C14.5413 6.50842 14.4654 6.6929 14.4645 6.88532V8.89124C14.465 9.08434 14.541 9.2696 14.6761 9.40753C14.7414 9.47357 14.819 9.52607 14.9046 9.562C14.9918 9.60111 15.0863 9.62134 15.1818 9.62134C15.2774 9.62134 15.3718 9.60111 15.459 9.562C15.5893 9.50484 15.7001 9.41096 15.7779 9.29184C15.8557 9.17272 15.8971 9.03351 15.897 8.89124V6.88532C15.8982 6.69392 15.8236 6.50982 15.6897 6.37309C15.5557 6.23637 15.3732 6.1581 15.1818 6.15531ZM15.1818 12.8565C15.1818 12.8565 19.9745 12.8565 23.1759 13.0851C23.6245 13.1358 24.5978 13.1422 25.4696 14.0351C26.1552 14.708 26.3752 16.2505 26.3752 16.2505C26.5438 17.2081 26.6217 18.1793 26.608 19.1515V20.8443C26.6224 21.8164 26.5452 22.7876 26.3773 23.7452C26.3773 23.7452 26.1657 25.2878 25.4717 25.9606C24.5999 26.8536 23.6266 26.8599 23.178 26.9107C19.9766 27.1392 15.1776 27.1456 15.1776 27.1456C15.1776 27.1456 9.23388 27.0884 7.40569 26.9171C6.89786 26.824 5.75525 26.8536 4.88348 25.967C4.19791 25.2878 3.97785 23.7452 3.97785 23.7452C3.81272 22.7867 3.73833 21.8147 3.75567 20.8421V19.1494C3.74126 18.1773 3.81848 17.206 3.98631 16.2484C3.98631 16.2484 4.19791 14.7059 4.89194 14.033C5.76371 13.1401 6.73705 13.1337 7.18563 13.0829C10.3828 12.8565 15.1818 12.8565 15.1818 12.8565ZM5.8949 15.7152V17.1286H7.32317V24.2869H8.75356V17.1286H10.1818V15.7152H5.8949ZM15.1818 15.7152V24.2869H16.6101V23.394C17.0608 23.9505 17.649 24.2869 18.1293 24.2869C18.3925 24.296 18.6513 24.218 18.8655 24.065C19.0798 23.9119 19.2375 23.6924 19.3143 23.4405C19.4274 23.0474 19.4795 22.6392 19.4687 22.2302V20.2687C19.4775 19.7498 19.4149 19.2322 19.2825 18.7304C19.2142 18.4777 19.0638 18.2547 18.8552 18.0966C18.6465 17.9384 18.3912 17.854 18.1293 17.8565C17.429 17.8565 17.1454 18.2141 16.6101 18.8405V15.7152H15.1818ZM10.1818 17.8565V22.6322C10.167 23.0027 10.223 23.3725 10.3469 23.722C10.4235 23.9021 10.5548 24.0536 10.7223 24.155C10.8898 24.2564 11.0849 24.3025 11.28 24.2869C11.8026 24.2869 12.4755 23.9187 13.0384 23.3115V24.2869H14.4666V17.8565H13.0384V22.336C12.7252 22.7592 12.266 23.0639 11.9804 23.0639C11.8939 23.0742 11.8068 23.0503 11.7376 22.9974C11.6685 22.9444 11.6227 22.8666 11.6101 22.7804V17.8565H10.1818ZM22.3464 17.8565C22.0341 17.8409 21.7219 17.8913 21.4302 18.0043C21.1386 18.1173 20.874 18.2905 20.6537 18.5125C20.3553 18.8278 20.1797 19.3441 20.1797 20.0127V22.1942C20.1797 22.8608 20.3723 23.3263 20.6706 23.6373C21.079 24.0605 21.6397 24.2721 22.3782 24.2721C23.1167 24.2721 23.6943 24.0478 24.0836 23.5929C24.2513 23.4002 24.3652 23.1666 24.4137 22.9158C24.4469 22.6547 24.4646 22.3918 24.4666 22.1287H23.0384V22.7C23.0093 22.8685 22.9215 23.0214 22.7907 23.1316C22.6598 23.2418 22.4942 23.3023 22.3232 23.3023C22.1521 23.3023 21.9865 23.2418 21.8557 23.1316C21.7248 23.0214 21.6371 22.8685 21.608 22.7V21.4135H24.4666V19.9704C24.4666 19.3017 24.3016 18.813 24.0075 18.4892C23.7912 18.2722 23.5312 18.1036 23.2449 17.9945C22.9585 17.8855 22.6523 17.8384 22.3464 17.8565ZM22.3253 18.8912C22.4991 18.8777 22.6714 18.9328 22.8051 19.0447C22.9388 19.1566 23.0233 19.3165 23.0405 19.4901V20.4401H21.6101V19.4901C21.6273 19.3165 21.7118 19.1566 21.8455 19.0447C21.9792 18.9328 22.1514 18.8777 22.3253 18.8912ZM17.4819 19.1028C17.8712 19.1028 18.0384 19.3419 18.0384 20.0868V22.0525C18.0384 22.7973 17.8712 23.0554 17.4819 23.0554C17.1578 23.0275 16.8517 22.8945 16.6101 22.6767V19.5535C16.8491 19.3199 17.1528 19.1636 17.4819 19.1049V19.1028Z" fill="#BDBDBD"/>
</svg>
