<svg width="50" height="50" viewBox="0 0 50 50" fill="none" xmlns="http://www.w3.org/2000/svg">
<path d="M25 2.08333C37.6458 2.08333 47.9167 12.3542 47.9167 25C47.9167 37.6458 37.6458 47.9167 25 47.9167C12.3542 47.9167 2.08333 37.6458 2.08333 25C2.08333 12.3542 12.3542 2.08333 25 2.08333ZM25 0C11.1875 0 0 11.1875 0 25C0 38.8125 11.1875 50 25 50C38.8125 50 50 38.8125 50 25C50 11.1875 38.8125 0 25 0ZM41.625 27.0208C41.5208 26.375 41.2083 25.7917 40.75 25.3125C41.3542 24.5417 41.6667 23.5625 41.4792 22.5417C41.1667 21 39.6875 19.3333 36.4583 19.3333H30.4167C30.1458 19.3333 29.9583 19.3125 29.875 19.2917C29.9375 19.125 30.125 18.8958 30.4792 18.5208C30.9792 18 31.6667 17.2708 32.1458 16.125C32.6875 14.8542 33.4375 10.6042 31.9375 8.08333C31.2708 6.97917 30.2708 6.33333 29.0208 6.25C26 6.04167 25.4167 8.54167 25.0208 10.1875C24.9375 10.5208 24.8542 10.875 24.7708 11.1875C24.3542 12.5833 23.3958 13.4375 22.2083 14.5208L21.6875 15C20.125 16.4375 18.9375 17.7917 17.7708 20.1458C17.125 21.4375 16.6458 21.7292 16.2292 21.8542C16 21.9167 15.8125 22.0625 15.6458 22.1875C15.3333 22.0208 14.9792 21.875 14.5833 21.875H10.4167C9.27083 21.875 8.33333 22.8125 8.33333 23.9583V37.5C8.33333 38.6458 9.27083 39.5833 10.4167 39.5833H14.5833C15.125 39.5833 15.6042 39.375 15.9792 39.0208C16.4792 39.375 17.1042 39.5833 17.75 39.5833H36.3542C37.75 39.5833 39.5208 38.6458 40.0833 37.0833C40.3125 36.4792 40.4375 35.4167 39.6875 34.1667C40.375 33.8333 40.875 33.3125 41.1458 32.75C41.625 31.7292 41.5417 30.5417 40.9583 29.5833C41.5208 28.7917 41.7708 27.8958 41.625 27.0208ZM14.5833 37.5H10.4167V23.9583H14.5833V24.3333V36.375V37.5ZM38.8958 28.7292C38.875 28.75 38.875 28.7708 38.8542 28.7917C38.8333 28.8125 38.8125 28.8125 38.7917 28.8333C38.7708 28.875 38.75 28.9167 38.7292 28.9583C38.6875 29.0208 38.6458 29.0833 38.625 29.1458C38.6042 29.2083 38.5833 29.2708 38.5625 29.3333C38.5417 29.3958 38.5417 29.4583 38.5417 29.5417C38.5417 29.6042 38.5625 29.6667 38.5625 29.75C38.5833 29.8125 38.5833 29.875 38.625 29.9375C38.6458 30 38.6875 30.0625 38.7292 30.125C38.75 30.1667 38.7708 30.2083 38.7917 30.25C38.8125 30.2708 38.8333 30.2708 38.8542 30.2917C38.875 30.3125 38.875 30.3333 38.9167 30.3542C39.3958 30.7708 39.4583 31.4167 39.2708 31.8333C39.0417 32.2917 38.5417 32.4792 37.8333 32.3333C37.7917 32.3333 37.75 32.3333 37.7083 32.3333C37.625 32.3333 37.5625 32.3333 37.4792 32.3333C37.4167 32.3333 37.375 32.3542 37.3125 32.375C37.2292 32.3958 37.1667 32.4375 37.0833 32.4792C37.0417 32.5 37 32.5417 36.9583 32.5833C36.9167 32.625 36.8542 32.6458 36.8125 32.6875C36.7917 32.7083 36.7917 32.7292 36.7708 32.75C36.7292 32.7917 36.7083 32.8542 36.6875 32.9167C36.6458 32.9792 36.625 33.0625 36.6042 33.125C36.6042 33.1458 36.5833 33.1667 36.5833 33.1667C36.5833 33.2083 36.5833 33.25 36.5833 33.2917C36.5833 33.375 36.5833 33.4375 36.5833 33.5208C36.5833 33.5833 36.625 33.6458 36.6458 33.7083C36.6667 33.7708 36.6875 33.8333 36.7292 33.8958C36.7708 33.9583 36.8125 34.0208 36.8542 34.0625C36.8958 34.1042 36.8958 34.1458 36.9375 34.1667C37.4792 34.6458 38.375 35.5417 38.1042 36.3125C37.875 36.9375 36.9792 37.4167 36.375 37.4167H17.75C17.1667 37.4167 16.6875 36.9375 16.6875 36.3542V24.3125C16.6875 24.1875 16.7917 23.9375 16.8333 23.8958C18 23.5417 18.8542 22.6667 19.6458 21.1042C20.6667 19.0417 21.7292 17.8542 23.1042 16.5833L23.6042 16.1458C24.9375 14.9375 26.1875 13.8125 26.7917 11.8333C26.8958 11.4583 27 11.0833 27.0833 10.6875C27.5625 8.66667 27.8125 8.33333 28.8542 8.39583C29.4167 8.4375 29.8125 8.6875 30.125 9.20833C31.1042 10.8542 30.6667 14.2292 30.2083 15.2917C29.8542 16.0833 29.3958 16.5833 28.9375 17.0625C28.3542 17.6667 27.7083 18.3333 27.7083 19.4167C27.7083 20.3542 28.1667 21.5 30.3958 21.5H36.4375C38.0833 21.5 39.2083 22.0625 39.3958 22.9792C39.5208 23.5833 39.1875 24.1875 38.6042 24.4167C38.5417 24.4375 38.5 24.5 38.4375 24.5417C38.375 24.5833 38.3125 24.6042 38.2708 24.6458C38.1875 24.7292 38.125 24.8333 38.0625 24.9583C38.0625 24.9792 38.0417 24.9792 38.0417 25C37.9792 25.125 37.9583 25.2708 37.9583 25.4167C37.9583 25.5625 37.9792 25.7083 38.0417 25.8333C38.0417 25.8542 38.0625 25.8542 38.0625 25.875C38.1042 25.9792 38.1875 26.1042 38.2708 26.1875C38.3333 26.25 38.4167 26.2917 38.4792 26.3333C38.5208 26.3542 38.5625 26.3958 38.6042 26.4167C38.9792 26.5833 39.4583 26.875 39.5417 27.375C39.6042 27.7917 39.3542 28.3333 38.8958 28.7292Z" fill="#C0C0C0"/>
</svg>
