<svg width="50" height="50" viewBox="0 0 50 50" fill="none" xmlns="http://www.w3.org/2000/svg">
<path d="M25 47.9167C12.3542 47.9167 2.08334 37.6458 2.08334 25C2.08334 12.3542 12.3542 2.08333 25 2.08333C37.6458 2.08333 47.9167 12.3542 47.9167 25C47.9167 37.6458 37.6458 47.9167 25 47.9167ZM25 50C38.8125 50 50 38.8125 50 25C50 11.1875 38.8125 -9.78042e-07 25 -2.18557e-06C11.1875 -3.3931e-06 3.3931e-06 11.1875 2.18557e-06 25C9.78042e-07 38.8125 11.1875 50 25 50ZM8.37501 22.9792C8.47917 23.625 8.79167 24.2083 9.25001 24.6875C8.64584 25.4583 8.33334 26.4375 8.52084 27.4583C8.83334 29 10.3125 30.6667 13.5417 30.6667L19.5833 30.6667C19.8542 30.6667 20.0417 30.6875 20.125 30.7083C20.0625 30.875 19.875 31.1042 19.5208 31.4792C19.0208 32 18.3333 32.7292 17.8542 33.875C17.3125 35.1458 16.5625 39.3958 18.0625 41.9167C18.7292 43.0208 19.7292 43.6667 20.9792 43.75C24 43.9583 24.5833 41.4583 24.9792 39.8125C25.0625 39.4792 25.1458 39.125 25.2292 38.8125C25.6458 37.4167 26.6042 36.5625 27.7917 35.4792L28.3125 35C29.875 33.5625 31.0625 32.2083 32.2292 29.8542C32.875 28.5625 33.3542 28.2708 33.7708 28.1458C34 28.0833 34.1875 27.9375 34.3542 27.8125C34.6667 27.9792 35.0208 28.125 35.4167 28.125L39.5833 28.125C40.7292 28.125 41.6667 27.1875 41.6667 26.0417L41.6667 12.5C41.6667 11.3542 40.7292 10.4167 39.5833 10.4167L35.4167 10.4167C34.875 10.4167 34.3958 10.625 34.0208 10.9792C33.5208 10.625 32.8958 10.4167 32.25 10.4167L13.6458 10.4167C12.25 10.4167 10.4792 11.3542 9.91667 12.9167C9.68751 13.5208 9.56251 14.5833 10.3125 15.8333C9.62501 16.1667 9.125 16.6875 8.85417 17.25C8.375 18.2708 8.45834 19.4583 9.04167 20.4167C8.47917 21.2083 8.22917 22.1042 8.37501 22.9792ZM35.4167 12.5L39.5833 12.5L39.5833 26.0417L35.4167 26.0417L35.4167 25.6667L35.4167 13.625L35.4167 12.5ZM11.1042 21.2708C11.125 21.25 11.125 21.2292 11.1458 21.2083C11.1667 21.1875 11.1875 21.1875 11.2083 21.1667C11.2292 21.125 11.25 21.0833 11.2708 21.0417C11.3125 20.9792 11.3542 20.9167 11.375 20.8542C11.3958 20.7917 11.4167 20.7292 11.4375 20.6667C11.4583 20.6042 11.4583 20.5417 11.4583 20.4583C11.4583 20.3958 11.4375 20.3333 11.4375 20.25C11.4167 20.1875 11.4167 20.125 11.375 20.0625C11.3542 20 11.3125 19.9375 11.2708 19.875C11.25 19.8333 11.2292 19.7917 11.2083 19.75C11.1875 19.7292 11.1667 19.7292 11.1458 19.7083C11.125 19.6875 11.125 19.6667 11.0833 19.6458C10.6042 19.2292 10.5417 18.5833 10.7292 18.1667C10.9583 17.7083 11.4583 17.5208 12.1667 17.6667C12.2083 17.6667 12.25 17.6667 12.2917 17.6667C12.375 17.6667 12.4375 17.6667 12.5208 17.6667C12.5833 17.6667 12.625 17.6458 12.6875 17.625C12.7708 17.6042 12.8333 17.5625 12.9167 17.5208C12.9583 17.5 13 17.4583 13.0417 17.4167C13.0833 17.375 13.1458 17.3542 13.1875 17.3125C13.2083 17.2917 13.2083 17.2708 13.2292 17.25C13.2708 17.2083 13.2917 17.1458 13.3125 17.0833C13.3542 17.0208 13.375 16.9375 13.3958 16.875C13.3958 16.8542 13.4167 16.8333 13.4167 16.8333C13.4167 16.7917 13.4167 16.75 13.4167 16.7083C13.4167 16.625 13.4167 16.5625 13.4167 16.4792C13.4167 16.4167 13.375 16.3542 13.3542 16.2917C13.3333 16.2292 13.3125 16.1667 13.2708 16.1042C13.2292 16.0417 13.1875 15.9792 13.1458 15.9375C13.1042 15.8958 13.1042 15.8542 13.0625 15.8333C12.5208 15.3542 11.625 14.4583 11.8958 13.6875C12.125 13.0625 13.0208 12.5833 13.625 12.5833L32.25 12.5833C32.8333 12.5833 33.3125 13.0625 33.3125 13.6458L33.3125 25.6875C33.3125 25.8125 33.2083 26.0625 33.1667 26.1042C32 26.4583 31.1458 27.3333 30.3542 28.8958C29.3333 30.9583 28.2708 32.1458 26.8958 33.4167L26.3958 33.8542C25.0625 35.0625 23.8125 36.1875 23.2083 38.1667C23.1042 38.5417 23 38.9167 22.9167 39.3125C22.4375 41.3333 22.1875 41.6667 21.1458 41.6042C20.5833 41.5625 20.1875 41.3125 19.875 40.7917C18.8958 39.1458 19.3333 35.7708 19.7917 34.7083C20.1458 33.9167 20.6042 33.4167 21.0625 32.9375C21.6458 32.3333 22.2917 31.6667 22.2917 30.5833C22.2917 29.6458 21.8333 28.5 19.6042 28.5L13.5625 28.5C11.9167 28.5 10.7917 27.9375 10.6042 27.0208C10.4792 26.4167 10.8125 25.8125 11.3958 25.5833C11.4583 25.5625 11.5 25.5 11.5625 25.4583C11.625 25.4167 11.6875 25.3958 11.7292 25.3542C11.8125 25.2708 11.875 25.1667 11.9375 25.0417C11.9375 25.0208 11.9583 25.0208 11.9583 25C12.0208 24.875 12.0417 24.7292 12.0417 24.5833C12.0417 24.4375 12.0208 24.2917 11.9583 24.1667C11.9583 24.1458 11.9375 24.1458 11.9375 24.125C11.8958 24.0208 11.8125 23.8958 11.7292 23.8125C11.6667 23.75 11.5833 23.7083 11.5208 23.6667C11.4792 23.6458 11.4375 23.6042 11.3958 23.5833C11.0208 23.4167 10.5417 23.125 10.4583 22.625C10.3958 22.2083 10.6458 21.6667 11.1042 21.2708Z" fill="#00ACCD"/>
</svg>
